<?xml version="1.0" encoding="UTF-8" standalone="no"?>
<svg
   height="2025"
   viewBox="32.9 57.77898118 414.2 366.56939652"
   width="2500"
   version="1.1"
   id="svg2"
   sodipodi:docname="android-new.svg"
   inkscape:version="1.4 (86a8ad7, 2024-10-11)"
   xmlns:inkscape="http://www.inkscape.org/namespaces/inkscape"
   xmlns:sodipodi="http://sodipodi.sourceforge.net/DTD/sodipodi-0.dtd"
   xmlns:xlink="http://www.w3.org/1999/xlink"
   xmlns="http://www.w3.org/2000/svg"
   xmlns:svg="http://www.w3.org/2000/svg">
  <defs
     id="defs2">
    <linearGradient
       id="linearGradient2"
       inkscape:collect="always">
      <stop
         style="stop-color:#7fe5af;stop-opacity:1;"
         offset="0"
         id="stop2" />
      <stop
         style="stop-color:#1a8e4b;stop-opacity:1;"
         offset="1"
         id="stop3" />
    </linearGradient>
    <linearGradient
       inkscape:collect="always"
       xlink:href="#linearGradient2"
       id="linearGradient3"
       x1="31.864603"
       y1="224.09589"
       x2="445.86469"
       y2="224.09589"
       gradientUnits="userSpaceOnUse" />
  </defs>
  <sodipodi:namedview
     id="namedview2"
     pagecolor="#ffffff"
     bordercolor="#000000"
     borderopacity="0.25"
     inkscape:showpageshadow="2"
     inkscape:pageopacity="0.0"
     inkscape:pagecheckerboard="0"
     inkscape:deskcolor="#d1d1d1"
     inkscape:zoom="0.27308642"
     inkscape:cx="1250.5199"
     inkscape:cy="1012.5"
     inkscape:window-width="1366"
     inkscape:window-height="705"
     inkscape:window-x="-8"
     inkscape:window-y="-8"
     inkscape:window-maximized="1"
     inkscape:current-layer="svg2" />
  <path
     d="m 340.46469,177.8901 34.5,-59.7 a 7.17,7.17 0 0 0 -12.4,-7.2 l -34.9,60.4 a 216.078,216.078 0 0 0 -177.2,0 l -34.9,-60.4 a 7.17,7.17 0 0 0 -12.39999,7.2 l 34.49999,59.7 c -59.500087,32.2 -99.900087,92.1 -105.800087,162.8 H 445.86469 c -5.9,-70.7 -46.4,-130.6 -105.4,-162.8 z m -196.8,103.8 a 17.2,17.2 0 1 1 17.2,-17.2 17.2,17.2 0 0 1 -17.2,17.2 z m 190.6,0 a 17.2,17.2 0 1 1 17.2,-17.2 17.2,17.2 0 0 1 -17.2,17.2 z"
     fill="#3ddc84"
     id="path2"
     style="fill:url(#linearGradient3)" />
</svg>
